<svg width="192" height="193" viewBox="0 0 192 193" fill="none" xmlns="http://www.w3.org/2000/svg">
<path d="M96 192.728C149.019 192.728 192 149.748 192 96.7283C192 43.7089 149.019 0.728271 96 0.728271C42.9807 0.728271 0 43.7089 0 96.7283C0 149.748 42.9807 192.728 96 192.728Z" fill="black"/>
<path d="M81.9937 8.26202L80.6189 9.61549L79.673 8.59053L82.093 6.19322L83.1618 6.02227L84.6775 15.4756L83.1866 15.7124L81.9937 8.26202Z" fill="white"/>
<path d="M86.3737 13.772C88.1182 11.7475 89.1869 10.4716 89.5842 9.95337C89.9623 9.48834 90.2083 9.11853 90.3447 8.84448C90.4768 8.56138 90.5248 8.24045 90.4978 7.87745C90.4666 7.5054 90.2996 7.19716 89.9926 6.94369C89.6856 6.69021 89.2944 6.58679 88.8149 6.62439C88.3667 6.65827 88.0185 6.81088 87.7656 7.09553C87.5084 7.37113 87.3486 7.68935 87.2686 8.03634L85.8749 7.58655C85.9458 7.24381 86.0928 6.89845 86.3202 6.5595C86.5476 6.22055 86.8682 5.91517 87.2771 5.65667C87.6859 5.39816 88.1682 5.2488 88.7329 5.20432C89.3381 5.15188 89.8863 5.23673 90.3642 5.45408C90.8511 5.66718 91.2374 5.97178 91.5273 6.37694C91.8129 6.77305 91.9809 7.22447 92.018 7.72639C92.0921 8.73024 91.6685 9.78018 90.734 10.8714C90.3564 11.3141 89.9374 11.8095 89.4586 12.366C88.9757 12.9135 88.6162 13.3476 88.3676 13.6413L88.3846 13.6775L92.5751 13.3541L92.6852 14.7167L86.5046 15.2022L86.3737 13.772Z" fill="white"/>
<path d="M94.2899 14.4155C94.0845 14.2137 93.9787 13.9651 93.9767 13.6788C93.9747 13.3924 94.0748 13.1354 94.2767 12.93C94.4785 12.7247 94.7271 12.6188 95.0315 12.6083C95.3269 12.6021 95.5839 12.7022 95.7851 12.895C95.9904 13.0968 96.0962 13.3454 96.0934 13.645C96.0955 13.9314 96.0044 14.1842 95.8025 14.3895C95.6007 14.5949 95.3521 14.7007 95.0567 14.707C94.7613 14.7133 94.4953 14.6173 94.2899 14.4155ZM94.2361 9.2474C94.0307 9.04559 93.9249 8.79699 93.9229 8.51064C93.9209 8.22429 94.0211 7.96725 94.2229 7.76189C94.4247 7.55652 94.6733 7.45071 94.982 7.44924C95.2774 7.44298 95.5344 7.54314 95.7355 7.7359C95.9409 7.9377 96.0467 8.1863 96.0439 8.48596C96.0459 8.77231 95.9548 9.02509 95.753 9.23045C95.5512 9.43582 95.3026 9.54163 95.0072 9.5479C94.6895 9.55362 94.4415 9.4492 94.2361 9.2474Z" fill="white"/>
<path d="M98.5464 14.3263C97.9579 13.8736 97.575 13.247 97.389 12.4284L98.8369 11.9356C98.9453 12.4482 99.1415 12.8421 99.4474 13.1403C99.7491 13.4294 100.143 13.5866 100.608 13.6113C101.086 13.6407 101.501 13.5121 101.865 13.2525C102.229 12.9929 102.421 12.6263 102.441 12.1749C102.465 11.7327 102.309 11.3531 101.963 11.0405C101.617 10.728 101.174 10.5607 100.629 10.5296L99.8025 10.4872L99.8808 9.10231L100.631 9.14732C101.096 9.17199 101.492 9.07422 101.824 8.8407C102.147 8.61143 102.33 8.2714 102.354 7.82911C102.372 7.44484 102.246 7.12864 101.984 6.87624C101.708 6.61906 101.367 6.48107 100.938 6.46173C100.505 6.43334 100.162 6.52794 99.8886 6.74498C99.624 6.95777 99.4206 7.2302 99.2874 7.55801L97.9523 6.90387C98.1707 6.38129 98.5349 5.93382 99.0631 5.55295C99.5822 5.17633 100.235 5.0132 101.017 5.0545C101.597 5.09094 102.104 5.22846 102.554 5.48093C103.004 5.7334 103.345 6.05927 103.572 6.47186C103.809 6.88019 103.91 7.32997 103.884 7.81697C103.854 8.31727 103.71 8.73875 103.451 9.08141C103.192 9.42407 102.878 9.67143 102.507 9.84586L102.505 9.91292C102.96 10.1297 103.324 10.4562 103.596 10.8698C103.872 11.2925 103.99 11.7785 103.963 12.3326C103.927 12.8909 103.763 13.3879 103.453 13.8099C103.143 14.2318 102.737 14.5664 102.23 14.7823C101.719 15.0115 101.154 15.1007 100.528 15.0632C99.791 15.023 99.1349 14.7789 98.5464 14.3263Z" fill="white"/>
<path d="M106.079 14.9069C105.536 14.4106 105.208 13.7361 105.098 12.9148L106.578 12.5615C106.633 13.0772 106.797 13.4972 107.076 13.8082C107.355 14.1191 107.722 14.3114 108.185 14.3808C108.658 14.4459 109.085 14.3668 109.471 14.1301C109.857 13.8934 110.084 13.5545 110.144 13.1175C110.213 12.6763 110.083 12.284 109.779 11.9411C109.465 11.6025 109.036 11.3953 108.488 11.3104L107.667 11.1877L107.875 9.81933L108.624 9.93141C109.087 10.0008 109.487 9.93442 109.836 9.7371C110.186 9.53978 110.39 9.22265 110.455 8.77239C110.509 8.39346 110.418 8.06023 110.17 7.79028C109.917 7.51128 109.586 7.34668 109.167 7.27838C108.739 7.21434 108.384 7.28179 108.093 7.46263C107.807 7.65253 107.582 7.90206 107.422 8.22028L106.152 7.44694C106.415 6.9478 106.827 6.53281 107.381 6.20624C107.935 5.87967 108.604 5.77509 109.375 5.88771C109.946 5.9731 110.442 6.15959 110.869 6.45623C111.296 6.75286 111.605 7.1048 111.796 7.5344C111.986 7.964 112.056 8.41751 111.982 8.89437C111.907 9.39359 111.723 9.80068 111.429 10.1157C111.135 10.4306 110.798 10.6551 110.419 10.7891L110.409 10.8604C110.841 11.1214 111.172 11.4738 111.412 11.9136C111.652 12.3533 111.72 12.8515 111.64 13.4087C111.559 13.966 111.338 14.4348 110.997 14.8381C110.652 15.2323 110.211 15.5169 109.688 15.6966C109.164 15.8763 108.586 15.916 107.967 15.8204C107.254 15.7137 106.617 15.4165 106.079 14.9069Z" fill="white"/>
</svg>
