<?xml version="1.0" encoding="UTF-8" standalone="no"?>
<!-- Created with Inkscape (http://www.inkscape.org/) -->

<svg
   width="297mm"
   height="76mm"
   viewBox="0 0 297 76"
   version="1.1"
   id="svg5"
   inkscape:version="1.1.1 (3bf5ae0d25, 2021-09-20)"
   sodipodi:docname="dibujo.svg"
   inkscape:export-filename="C:\Users\victo\Desktop\dibujo.png"
   inkscape:export-xdpi="96"
   inkscape:export-ydpi="96"
   xmlns:inkscape="http://www.inkscape.org/namespaces/inkscape"
   xmlns:sodipodi="http://sodipodi.sourceforge.net/DTD/sodipodi-0.dtd"
   xmlns="http://www.w3.org/2000/svg"
   xmlns:svg="http://www.w3.org/2000/svg">
  <style
     type="text/css"
     id="style2">
    @font-face {
    font-family: &quot;Bungee&quot;;
    font-weight: normal; /* descriptors should match your styles */
    src: url(&quot;data:application/font-woff,wOFF%00%01%00%00%00%00%12%AC%00%12%00%00%00%008%DC%00%01%00%00%00%00%00%00%00%00%00%00%00%00%00%00%00%00%00%00%00%00%00%00FFTM%00%00%01%94%00%00%00%1C%00%00%00%1C%8B%7B%DFqGDEF%00%00%01%B0%00%00%00%1C%00%00%00%1E%00%27%00%23GPOS%00%00%01%CC%00%00%03%D3%00%00%21%C6%98%CD%AC%23GSUB%00%00%05%A0%00%00%00%7C%00%00%00%DE%1B%A53vOS%2F2%00%00%06%1C%00%00%00L%00%00%00%60%99%15%E8%D5cmap%00%00%06h%00%00%00%92%00%00%01%9AlT%5C%85cvt%20%00%00%06%FC%00%00%00P%00%00%00P%1E%3E%25~fpgm%00%00%07L%00%00%01%B1%00%00%02eS%B4%2F%A7gasp%00%00%09%00%00%00%00%08%00%00%00%08%00%00%00%10glyf%00%00%09%08%00%00%05%5D%00%00%08%1C%25%80%E7%DChead%00%00%0Eh%00%00%005%00%00%006%15%EA%BB%C5hhea%00%00%0E%A0%00%00%00%20%00%00%00%24%12%D8%00Vhmtx%00%00%0E%C0%00%00%00%5E%00%00%00th%8E%04%FDloca%00%00%0F%20%00%00%00%25%00%00%00%3C%26%8E%29.maxp%00%00%0FH%00%00%00%20%00%00%00%20%017%00%E8name%00%00%0Fh%00%00%02%0B%00%00%04%B0Op%A6%10post%00%00%11t%00%00%00v%00%00%00%E2%CA%18%7F0prep%00%00%11%EC%00%00%00%BD%00%00%011%C6%F4%FC6%00%00%00%01%00%00%00%00%DA%87o%8F%00%00%00%00%D2%D6%BEa%00%00%00%00%DE%1D%B1%80x%DAc%60d%60%60%E0%01b1%20fb%60%04B%19%20f%01%F3%18%00%04%D2%00Kx%DA%CDZ%BDo%D3%40%14%BF%A4%A8%D0%08%25-%CA%88%C4%0A%08%21%A42%F0%07T%A8C%C5%80%18%B300%15U2B%2C%CC%9D%BB%7B%EE%EC9%BBg%CF7%7B%BF%81%C9b%F2%F1%EE%7C%CE%7D%F8%CE%E7K%EEP%7B%8A%13%C7%F1%BB%97%DF%FB%BD%CF%06%CD%10B%0B%F4%1E%7DB%F3%8B%8FW_%D0%F2%FB%D7%9F7%E89z%04%EF%23J%D1%1C%9Ef%C6%D9%FC%FA%DB%8F%1B%B4%FCu%0D%C75%7Fg%C6%8F%08%AE%1F%A3%A5%F8%D4i%F7%BC%BA%40%F3%D5%07%F4%04%A1%D5%CB%D5%3B%F4%1A%BD%05I%84b%8AQ%92%3F%DA%B0%95Hv%0D%8BP%92D6%01%BDI%22%BD%89XM%22%BD%93i.wI%82I%3A%C4%CFi%AE%21Ob2%3C%15%CA%ED%D6%8A%12%E6%C7%92f%FCU%C9%8E%FB%C86%F5f1%40%AC%92nv%B2q8%5E%B1%11%D6d%E7%26%07%D3xQ%02%99e%3A%AFT%F1%96%AF%E3%EC%17f%CB%106%82%BF%97%3D6S%ECAsz%3B%D5bm%23Q%E8%F9%D8%C7%98%DD%AE%5CW%C8%21%8D%3Cgg%CCR%3A%87%DD9L%8D%E3zD%1F%DE1%C5.B%D3f%AA%F5B%AC%D3a%D2%C9%1EbBo%F9%B9%C0D%B5%27%3B%F3a%22%A4ai%D3%F18%A9V%1C%2Aw%C7%F2%3C%C8%C6%0Ef%D4C%5DL%CC%C5%27%1B%5D%17z%A9XO%D8r%F7%5C%D2%C2%81I%23s%B8%E2oF%AD%C3%B9T%07%F8C%FC%A8%B9%E0%C7u%B0%17%0B%ADG%ABB%29%3B%A8z%A4%2Fha%F1%09%87%B7%B4M%DB%F8%7C~%E8%E9%F1%23%FFPr%8F%90%60%08%EE%B3%B3%DF%BF%C5%9Dd%E75%11%F2%A5%FF%FE%89%F1%24%24~%27%AE2SU%5B%BEl%F3P%BF%85%2FNj%9E%B9~%40%7DZJ%D9%24Y%B59%B3%3C%E6%CFNY%F7%7D%F6%E7%EC%2Ft%E9oxM%82%93T%8BD%F9vyD%B9%05%C4%F6%CA%40%2F%B2mb%EA%EB%B4z%99%C2%F2%AC%C2%04%7B%E6%7C%15j%9E%9A%5E%FF%C6%8E%B2J%1D%96%AE%7F%28%E8g%D8%21%8B%1D%EB%E9%3D%C8%AD%C6%E5%EE%DF%F5%A7%E2%99%CB%EE%F1%F0%EFz%90%18%D5%8A%A8%3FbjfL%90%94Z9%FE%D4%07s%1Cp%9C%F9%E3%FF%CE%EB%FB%E0%01%9EV%D9%EAHW%8D%C9%17D%22_%8C%06%A9Xv%28%86%DDX%FFT%EB%96%E4%F1%E4%9En%BB%D7%87%D4-%F6N.%24%1A%C6%97K%B7%3C%8E%97cr%1D%D5%3C%A6%5BG.6%E67%1A%9A%B5%C5n%98%D9%3A%0C_%87%8F%E0%F0l%C3%F9%E0%D6%97%E8QC%F0l%DBG%A5%11m2%C8%8C%95%B1%13%91%DEl%5C%E33%C4%B6j%2B_%1DC%CF%E9%86%FE%96%FD9%FBt%2F%8B.%60%BD%D2%EA%C9%82%F5%E6%ED%5D%7B%C7Q%DE%C4%AB%B4%87%DF%7D%BC%9B%F3%B1%D1%ECo%15%CCk%C7%94%B0T%26%0D%8D%3AU%02%96a%AB%1F%17%0C%D9q%9E%0D%EB%3C%9D%0F%B6%2B%D3%B3%13hp%09%DAeV%7F%2B%24%AB%CC%0E%863%A6%F0%D9n%8A%16%2A%DB%85%7F%D7i%FE%A7%E5%E9%EE%2B%F7%04%CC%C6%C7%10%AC%F7%AC%C1%1A%C7%84%27%3C%3E%EC%A6%1C%DE%3D%2B%DE%17%E5%23%13N%93%8D2%86%D4c%7Do%97%0F%DD%F8%0C2%85%F4%9Djl%1Ec%ABw%84Dl%99%5Ez%27%B9%3CN%16%86g%93%5D%97%919%EE%C9x%DC%CB%D4%D8%AF%B3%B8%9BH%1E%923%EC%B2%BB~%CA%CBo%ECgh%ACj%EE%90%FE%2A4%BFZ%EA.%EC%C9WdZ%A4%D0%D9%CAX%C8%E2%E4%F4~%C8%B6%8F%CAW%CE%B3%DC%CE%B3%40%0C%B0%23%9E%91%18%B3%2CeF%DB%A4%99%EF%25%9A%01%1D%C1c%C9%7Fsq%82%1Ew%BF%BC%60%BF%9E%10W%E7p%FD%08%1D%F3%F7%9E%C2%D5%25%AC%93%7F%83%22%C9%D9%00x%DAc%60d%60%60%E0bpcH%60%60rq%F3%09a%E0%CBI%2C%C9c%90b%60%01%8A3%FC%FF%CF%C0%08%84%02%0CL%CE%8E%21%0A%0C%12A%FE%BE%0A%40%1EL%1CD3%01%95120%E5%E4%27%E70%F0%E5%17%A5%E41%88%80E%18%C0%24P%86%81%0D%A8%83%0D%C8c%02%CA%18%40YN%0C%11%0C%CC%60%15%02%60q%09%A8%1E%18%C6%2F%C7%C8%20%04%C4%7CP%3B%F0%88%02%00%3B%25%11%5Cx%DAc%60f%3E%C78%81%81%95%81%85%D5%98%E5%2C%03%03%C3%2C%08%CD%04%C2i%0CH%40%81%81%81%1DH1%C2%F8%29YE%0A%0C%0E%0C%0A%AA%7F%D8%1E%FE%7B%C8%C0%C0%2B%C4%5E%AE%C0%C08%19%24%C7%C2%C0z%18%AC%85%19%00y%D9%0Dax%DAc%60%60%60f%80%60%19%06F%06%10%98%02%E41%82%F9%2C%0C%15%40Z%8AA%00%28%C2%C5%A0%C0%A0%C3%E0%C8%E0%CA%10%C0%10%C2%B0%80%E1%A4%02%97%82%BEB%BC%EA%9F%FF%FF%81j%60r~%0CA%609%06%98%DC%FF%C7%FFo%FC%3F%F2%FF%E0%FF%9D%FFw%FC%CF%FD%EF%FA%80%FF%FE%EB%FB%7Bn%29%40%ED%C2%01%18%D9%18%E0%0A%18%99%80%04%13%BA%02%88%93a%80%05%9B%21%AC%40%CC%06%E3%B0sp2pq%F30%90%04%F8%18%A8%02x%C9%D2%05%00%FA%09%22%87%00%00%00%00%05%C3%05%C3%01%87%01%3B%01%5C%01o%01u%01%7F%01%83%01%8C%01%91%01%AC%02%1A%01%D1%01%BC%01%C0%01%C5%01%CB%01%D1%01%D5%01%DF%01g%01_%01B%01N%01x%01P%01Y%01%BE%00%C7%01%94%01%85%00%AF%00%2B%00-%01%B4%01%C8%00D%05%11x%DA%5DQ%BBN%5BA%10%DD%0D%0F%03%81%C4%D8%209%DA%14%B3%99%90%C6%7B%A1%05%09%C4%D5%8Dbd%3B%85%E5%08i7r%91%8Bq%01%1F%40%81D%0D%DA%AF%19%A0%A1%A4H%9B%06%21%17H%7CB%3E%21%123k%88%A24%3B%3B%B3s%CE%993K%CA%91%AAw%E9k%CFS%E7%24%90%C2%DD%06%CD6%FDNH%B5%B3%00%F7%A4%EB%EB%8D%8C%B4%83%07Zlf%F4%CAu%FB%FE%0B%06%9B%D1%94%3Bj%00%E5%3Do%29%0F%19M%3B%81Z%B4%A7%FE%D1%FC%0A%86%FB%FC%1F%F3%3B%18%B44%D3%F4%D4%3A%09%E9%21%04%E6%9BqK%83%EF%19%CD%BA%CB%0F%FA%82%D5%E1b00%A4%98%A6%E2.%3F%A6R%FE%B74%E7j%CB%B0%B5%91%D1%BC%833%11%F9%C94%40Skm%04%9A%FE%D4%21%D5%F3q%14K%90%CB%A6%B16%98%98%B2%FE%24%13%C1%85%C9tUS%B5%CC%F8%DA%C1%5D%B2%B3%E8%60%83%2A%CD%81%07%D8%C3Vy%0C%1E%0E%0F%26%14%D2%B7%24%CA%2C%0D%11%F6b%AB%C4%08%11%93%1C%0A9%E5%DC%C9%FE%A4%40%F9H%12%C6%BCIJ%3B%E3%86%B5%06%C6%91%D7%C0%A06O%B3%FF%3C%9BMmo%1D%C2%F8Y%1C%C1w%BF%19K%3A%F8%C8%86%DA%18%11b%3Bb%29%80%09DBFU%F9%86%1A%CF%BD%2C%06%E4R%FB%CF%40%94%80%E5%F1%8F%7F%9D%08%B4%EE%D8D%3C%97%B5u%0E1V%08z~%DB%DC%F2%CB%8A%BBV%B9%CE%8BBwo%AAj%A8%D2%29%CD%FB%5E%CE%BE%C7%03%9E%1E%0B%C3Ac%C1%9B%CF%FB%FEJ%81%FA%3C%2C%AE4h%0E%04Cz7z%FF%A2%B5%EA%88%AB%BC%17%3E%B2%27%D3%BF%B1Z%00%00%00%00%01%00%01%FF%FF%00%0Fx%DA%8D%95O%8C%13U%1C%C7%DF%9B%CE%F4%CF%DA%96N%DB%D9v%FBo%3B%F3%DA%BEm%C6%DDn%3B%DB%96%C2%B6%60%82%98p%F0%40%82%F1%60%C0D%0F%1BBl%88%07B%3C%18%E2%09%92%86%83%1Ae%83%069%18%A2%883%B3%D5%90%25%01%22%E2%01%DD%18%82%B8%07%FF%C4E%3D%8CJ%F4%E0%01Wv%F0%F7%5E%17%D8MP%9C%C3%FB%BD%F7%26%93%7C~%DF%DF%F7%F7%1B%24%A0m%08%09%CFK%BB%90%07%F9%D0%84%85Qe%DA%F6%89%A5%9B5%CB%2B%7D%3Bm%7B%04%D8%22%CB%C3%AE%25vm%FB%BC%F4%F6%B4%8D%D9%BD%21%ABrQ%95%D5mB%DE-%E07%DD%19i%D7%F2%FB%DB%C4%05%84%10F%FB%EF%18%C2I%C1%40%194%81%CCP%A5%1F%17%91_%D4%CDT%C5%12%83%0E6%B3%15%13%7D%DD%0F%28h%83%A8%AF%06%2B%87u4Ym%CAS%0DC%AD%0D%2Br%DC%ABc%AD%D4%C6S%8D%CD%B8%D6hc%A2%95%F6k%14%BFM%C9%BB%87a%21%B4%97%CE%FE%40%B5y%5Ca%07%F7%E5%E3%C7%08%DDII.%3D%AA%01%02%12P%17%21iF%BA%84T%A4%A3%9D%C8%1EEH7%E3%06%8F%B6_X%5D%FA%29m%D4%1F%D2%AD%94%0F%B0%1EeXV%3A%E2%98%E9%88%95%C4%BA%25%87%1Dk%1Cb2-G-%8D%B4Z%C8%F2kr%D4%A4%AD%01i3%D6%C1%8C6%11%CBaFLT%ADT%07%5D%06%3B%ACz%260%24%E1%F5u%E9%D8%5C%D0%28%0B%94%1A%C1%B9rI%A3%EE%95r%C9%7D%1D%B0%AFQ%0D_%C7%8F%3D%EB%8F%05%8D%60%CC%BFC%C8%B4%DF%D9%8B%AF%12U%25ne%EF%89%CE%CAO%2C%3B%9Cso%40%14%E6q3%2A%CBQ%C45%EE%21%24.B~%04%3D%81l%15%B2%B2%92%01%C7%16%21%29%2B%14p%FA%E1%84%2ABba%2F%24V%E0%89%25%A3%8E%19%AA%D9I4%A4%CFmM%06%02%BA%99%A9%C1%26%16%D0%AD%E2%3A%F1%B3%98%25%A0%3C%60%A7%95z%84z%3EfL%2B%9F%E3%A3%5C%F9%FDB%9D%C5%DB%3B%28%D9%21%F1b%FCA%C9%5B%84~C%89I%E8%EFpq%8FW%3A%08%BC%1Az%1C%D9yV%0D%C5%E0%913%9B%21%83Gl%12%0E%9B%91%1D3%13%B1F%B0n%06jVTv%AC%020Zb%1E%2A%11H%B7V%0B%00%D6%18N%E05%9Ea%88m%8C%E5%7B%B0%D7i3%8D%21b%83%C3.P%E2%9E%1CD%0E%3B2%EAn%C2%7D%F6j%F9%2A%CF%02%9FZy%86%21%0B%E8%C0%9D%25%A9%2B-%21%05%14%DE%84l%99%29%3C2%E4%D8%5E%A6p%FE%91%7B%B2%0E%87%1Ds8be%C0%27A%F0%0BHie%86%81R%F6%82_%26%AB1y%AA%23%18%B5%9C%00xa%81h%13B1%3El%D4%1Auy%AAD4%AFr%A0%D9%5B%BEp%FEVo%E3%C6%DE%AD%F3%E7%FF%EE5%F1%D5v%B7%DB%EE%BC%D0m%E3W%84%F9%DD%B3%DDv%BB%7Bl%CF%CA%F6%DD%B3%FB%3A%9D%7D%B3%A7%CA%CD%26sR%B3I%07%3Eg%BA%8E%83%AEq%94C%5B%90%1De%8A%F2Eb%A09%BF%D3%0F%29Q%09%AC%10bV%18%E5%CCa%60Vjf%98%0Bl%0568V~%8D%03%F2%5CJ%95%DC%F5%B1%C1%FAo%AA%A43%1D%85%17q%E2%8B%05%F7%97%DF%40%C4K%94%E0%85%B3%9BK%C5%E9%B3%5C%CC%EFmw%D9%FE%CE%3D%CD%AC%FAk%87%EE%A3%9D%BB%7C%B3%DC%A7%E3%E8%B9%81S%CD%98%C1%E3%00q%DC%EB%F43%05%95%21f%18%E2%04G%CC%02b%A1fg%B9%5B%B3~pk6b%25%806%02%22W%20%26%B2%D0%89c-3%22%9BAh%CCB%06%8E%C1%D6z%17%FB%D6%F6%25%E8%AD%3E0%A5%F7~%3Ecl%E9%1E%86%8C%3E%A1%1A%D1%DD%25%D8%5D%86%DC%BE%9C%AD%17%8B%F5Y%9E%DB%857%F6%3Cu0%15%3C~%C8%7D%92wdk%5Cw%BB%B0%F3%94%9B%E5%ED%E5%26%F8%7B%06%FAq%09%F2%1CGc%C8%D6%99%5BD%E8%C7%18%CB0%E3%E1i1ldeD0G%A8%C0-%5C%E7%A8%8D%FAT%89%16%270%1Bv%F7%FB%0F%BC%11%1FNH9%7C%B7%F5f%00%95%A6S%A9%B4%BBp%F4%C3%1B%9F%09%1D%EEh%92%CEf%D3%B8z%D4%FC%F1%F2%CAAp5k%B8%24Q%05%3D%FE%DA%E9%C53%E7%08%FD%93%12-%9D.%0A%E5%F8%AB%1F%2C%9E%99%27%AC%17%5BP%13%2F%B0%8E%ACw%0C%1F%1E%89%21%C7%0C%D60%0CkS%01%A7%28%8E%1DVX%0D%C201l%25%CC%B6%0A%82%99%91%E6%8E%89%D5%D72%DF%9F%81Z%A9E%A8%D8%E2%88%D7%60%E0A%8F%C1%B0%23%E2%A1%5B%EC%0A%96%DB1%B6%F1%DC%24%AB%1E%11%17%7D%7D%F0%88%81%CC%87M%B3%A9%87M%B3%3A%0C%8DFj%DE%F7%D5%C5%97%90%A2%0F%85M%1A1%CB%17%AD%EA%C8_f%E5%22%1C%E6%C6h9%A6%9B%D5%C8%DCd%B5%12%D3m8%E6%8F%E4%8F%10oX%8E%B6l%B8%83%80%3E%1A%2BOVie%82%3Fx%DD%C9%DC%9A%C2V%12%81%DF%0A%AD%FF96%99L%CDbc%60J%C9%FB%DFc%F4%04%14%FA%0Aa%2F%1B%E4%DFf%AA%97~JG%C5%A7%C5%A2vy%10%F9%8C%85G%BA%04u%F5%A0%2A%B2%11%2B%29_%B0%B0%BA%60S%E4%BF%5E%8F%82%7C%F0%EB%1D%04K%E2%95%AC%C2%8F%8B%7D%BC%DC%86o%FE%01%E7%DF%00%FD%00%00%00x%DAc%60d%60%60%00%E2_S%1DY%E2%F9m%BE2%C8s0%80%C0%A5k%FB%12A%F4%3D%D9%8D%0D%0C%0C%FF%8DY%0F%B3o%01r9%18%98%40%A2%00%3B%FD%0BO%00%00%00x%DAc%60d%60%E0%15%FA%D1%C9%C0%C0%BE%81%81%E1%FF%7F%D6%C3%0C%40%11%14%20%0B%00%7Cp%05%3Dx%DAcz%C3%E0%C2%00%04L%AB%18%18%18%CF000%0B1%14%B2%5Eg%C8g%B5f%E8ecc%E8e%7D%CAP%CEZ%02%A4%3F%02%B11C%06%AB%3D%83%25H%1DH%9E%F9%06%03%03%FB%06%A0%1E%28%CD4%01h%C6%1B%20%F6%80%60%86o%40%BA%13H%E7Bh%90%1C%EB%21%06%06%00A%0A%15%E4%00%00x%DAc%60%60%D0%81%C2%3C%86%7B%8Cf%8C%7D%8C%8F%98%8C%98%961%FDav%01%C2%17%B8%21%0B%1F%00%CB%E3%12%FA%00%00%00%00%01%00%00%00%1D%004%00%02%00%00%00%00%00%02%00%01%00%02%00%16%00%00%01%00%00%B0%00%00%00%00x%DA%9D%93Mn%13A%10%85%DF0%21%10%11%BCAB%08%21%D4%0B%94%15L%82%93%28%22%DE%00B%96%88%82%00%07%C1%DA%C6N%ECdl%87%99%C1%B9%05b%C9%09X%B1%E6%0C%FC%9C%00%8E%C0%19%10%E2%EB%9AN%FC%23%16%16ju%F7%EBW5U%AF%ABz%24%5D%D1%2F%C5%8A%16%96%24%AD0K%1Ci%99S%89%CF%A9%A2j%C01%E8~%C0%0B%BA%A1%2C%E0%F3%1A%E8%5D%C0%8B%F0%BF%03%BE%A0Ft-%E0%8BZ%89%0E%03%5E%02%BF%0F%F8%92nE%9F%03%5E%06%FF%0C%F8r%E4%A2%3F%01W%B4%11%DF%0C%F8%8B%AE%C6%8D%80%BFj-%EE%06%FCM%95%F8C%C0%DF%B5%18%7F%2C%F1%8FX%D7%E3Oz%A9%0Ej%0B%F5%F4ZM%A5r%B6%16%C6%0E%C0%1E%E5z%A8%B7%9C%0E%C0%1D5%98%07%9CS%AC%99%EE%2A%D1%9A%8D%9A%DA%3A%84q%A0I%FF%3B3_L%DA%DC%8C%ADT%93%A3f%88%8F%9B%8A%FEL%7BgLM%5D%3C%0A4%7B%BF%D1%19%9Fh%8BN%D4%D4%27%DA%11%B1%BC%CF%3ElJ%C4%16%96D%9B6%EFY%CC%F9U%F6%D0%E4%2B%E3%88%97%B1%B7a%FB%E6w%047%24%87%D3%0B4y%DF%BAi%2A%40%3EF%06%D7dO%F4%88%7DD%A46%96%1D%F3%F1%D5%ED%B2%0E%AC%0ECr%E4szu%E1%0A%1Dk%5B%AB%8C%13%1BI%A8%7FbU%E9%CF%E5%E35%97w%1B%AB%DE%B3%FB%14x7M%FD%E9%EDS%7B%23%1D%BCrV%AF%CFW%A8m%1Ds%A6%B1c_%3F%D6.%FBS2wL%F38%F2%EET%84%DB0%FF%EA%B7%9FnB%D9t%DEq%2FF%CC%9Eu%AB%C5%EA-%27%9C%BD%8E%B2Su%3D%D0s%C3%055p3%F5%C8%89%99%E1%7F%0C%97%931%B7X%09%3A2%BA%BE%8A%FE%3Az%FF%E7%9BWhiQ%C1%D3%5B%97%2F%F3I%B8%E1N%E8%E4%3A%BC%B7m%12%7B%9D%97%B9%0D%DE%82%A9%E2%5Be%F8%BA%EE%DB%CB%F1%7Fcjoy%B2Go%B0%F4%C8%EB%3B%94%FE%05%DD2%B8%BF%00x%DA%7D%C5%3D%0F%C1P%18%05%E0sZZ%DF%C5n3%18%DF%FB%D6m%19%1BI%FF%89%20%11%B1%18%FC%7B%91%7B%AC%9E%E5A%86%FF6%003%E6%C8Qa%8B%1D%02%1C5%22%1A%B4%1C%E0%CC%21%0B%96%1Cq%CC%09%A7%9Cq%CE%05%2B.%B9%E2%BA%B8%DC%DF%CFkHy%F9z%DC%CC%3A%FB%EEf%BF%83v%5D%EB%BD%8E%BA%D1%AD%3E%E8%A3%EE%D2%DE%A7c%3A%F6%A7%0F%B0%0F%27v%00%00x%DAE%CE%3B%0E%82%40%10%80a%16dy%8A%3C%D6%92%04m%B7%B3%B6%B0%10%2C%88%89%B1%82%C4%03x%02%1B%0Bm%AC%8C%1E%C5%0CV%C6sx%1Eq%D4q%ED%E6%FB%93%99%CC%8D%B5%07%60%27%AD%04%7BQ5%8C%9D%EB%A6%E0%B2%1A%40X%97%20%968%EC%EB%14%B8%5CU%1A%18Y%0E%86%9C%82%93%E5W%E3%A9%CB%0Fl%84s%24X%08%7BF%E0%08kD0%11%3C%25t%10fBp%DF%D7%1E%04%0F%E1n%09%3E%C2%1B%12%BA%08%DF%FF%82A%40%AF%C4X%83%8B.%1B%A3%D8%20%23d%BCV%0C%91%D1D%B1%87%0C%C7%8AI%96%DF%B5%60%D7j%AA%88wI%18%FF%97%3E%AE%88%F9%8F5%08%F9%02sgV%AF%00%00%00&quot;) format(woff);
    }
  </style>
  <sodipodi:namedview
     id="namedview7"
     pagecolor="#ffffff"
     bordercolor="#666666"
     borderopacity="1.0"
     inkscape:pageshadow="2"
     inkscape:pageopacity="0.0"
     inkscape:pagecheckerboard="0"
     inkscape:document-units="mm"
     showgrid="false"
     inkscape:zoom="0.83402492"
     inkscape:cx="417.85322"
     inkscape:cy="214.62188"
     inkscape:window-width="1440"
     inkscape:window-height="890"
     inkscape:window-x="-6"
     inkscape:window-y="-6"
     inkscape:window-maximized="1"
     inkscape:current-layer="g42"
     height="209mm" />
  <defs
     id="defs2">
    <rect
       x="261.97778"
       y="642.651"
       width="322.17331"
       height="53.412949"
       id="rect24435" />
    <rect
       x="250.95605"
       y="423.91226"
       width="518.86859"
       height="115.30413"
       id="rect5518" />
    <clipPath
       id="a">
      <path
         d="M 346.38672,153 H 1092 V 810 H 346.38672 Z m 0,0"
         id="path260" />
    </clipPath>
  </defs>
  <g
     inkscape:label="Capa 1"
     inkscape:groupmode="layer"
     id="layer1" />
  <g
     inkscape:groupmode="layer"
     id="layer2"
     inkscape:label="Trazado">
    <g
       id="g42"
       transform="matrix(0.26458333,0,0,0.26458333,-109.96903,32.370941)">
      <g
         id="g278"
         transform="matrix(0.20738998,0,0,0.20738998,367.82954,-51.040864)">
        <path
           fill="#fc9219"
           d="m 852.60153,-123.78237 c -256.46168,0 -464.34778,207.886043 -464.34778,464.34772 0,256.46165 207.8861,464.34772 464.34778,464.34772 H 1316.9494 V 340.56535 c 0.08,-256.461677 -207.8861,-464.34772 -464.34787,-464.34772 z m 0,0"
           id="path30"
           style="stroke-width:1.14654" />
        <g
           id="g313"
           transform="translate(141.5867,-57.652063)">
          <path
             fill="#ffffff"
             d="m 895.52344,152.03125 c 5.67578,3.78516 13.875,1.89453 17.66015,-3.78516 l 23.96485,-35.95703 c 0,0 15.13672,13.87891 15.13672,13.87891 5.67578,5.04687 15.13281,3.78515 19.54687,-3.15234 l 30.27347,-51.101568 c 3.7851,-6.304687 1.2617,-13.875 -4.41409,-17.03125 -6.3086,-3.785156 -13.875,-1.261718 -17.02735,4.417969 L 958.58984,97.148438 943.45312,83.902344 c -2.52343,-2.523438 -6.30468,-3.785156 -10.08984,-3.15625 -3.78516,0.632812 -6.9375,2.523437 -8.82812,5.679687 L 893,135 c -5.04297,5.04687 -3.15234,13.24609 2.52344,17.03125 z m 0,0"
             id="path271" />
          <path
             fill="#ffffff"
             d="m 720.20312,114.8125 c 6.30469,3.15625 13.875,0.63281 17.02735,-5.04687 l 21.4414,-41.003911 25.85938,10.722656 c 6.30469,2.523437 13.24219,0 16.39453,-6.308594 L 825.52344,20.1875 c 3.15234,-6.308594 0,-13.878906 -6.3086,-17.035156 -6.30468,-3.152344 -13.875,0 -17.02734,6.308594 L 782.63672,51.097656 757.41016,40.375 c -6.30469,-2.523438 -13.24219,0 -15.76563,5.675781 l -27.11719,51.097657 c -3.15234,6.308592 -0.63281,13.878902 5.67578,17.664062 z m 0,0"
             id="path273" />
          <path
             fill="#ffffff"
             d="m 541.72656,111.02734 c 1.89453,3.15625 5.04688,5.04688 8.19922,5.67969 3.15234,0.62891 6.9375,-0.63281 9.46094,-2.52344 l 20.17969,-15.773434 c 0,0 28.3789,37.851564 28.3789,37.851564 4.41406,5.67578 11.98438,6.9375 17.66016,2.52344 5.67578,-4.41407 6.9375,-11.98438 2.52344,-17.66407 L 591.55078,72.546875 c -1.89453,-2.523437 -5.04687,-4.414063 -8.19922,-5.046875 -3.15234,-0.628906 -6.9375,0.632812 -9.46094,2.523438 L 554.33984,85.164062 527.22266,45.421875 C 524.07031,40.375 516.5,38.480469 510.82422,42.265625 c -5.67578,4.417969 -7.56641,11.988281 -3.78125,17.664063 z m 0,0"
             id="path275" />
          <path
             fill="#ffffff"
             d="m 413.70703,195.5625 c 4.41406,5.67578 11.98047,6.9375 17.65625,2.52344 5.67578,-4.41797 6.9375,-11.98828 2.52344,-17.66407 l -17.02735,-22.08203 c -4.41406,-5.67578 -11.98437,-6.9375 -17.66015,-2.52343 -5.67578,4.41796 -6.9375,11.98828 -2.51953,17.66406 z m 0,0"
             id="path277" />
          <path
             fill="#ffffff"
             d="m 461.63672,171.58984 c 6.93359,1.26172 13.24219,-3.15625 14.5039,-10.09375 l 3.15235,-18.29687 c 1.26172,-6.9375 -3.15235,-13.2461 -10.08985,-14.50781 -6.9375,-1.26172 -13.24218,3.15625 -14.5039,10.09375 l -3.15625,18.29296 c -1.25781,6.94141 3.15625,13.25 10.09375,14.51172 z m 0,0"
             id="path279" />
          <path
             fill="#ffffff"
             d="m 363.88281,225.83984 c 0,0 21.44141,3.78516 22.07422,3.78516 5.67578,0 11.35156,-4.41406 12.61328,-10.09375 1.26172,-6.9375 -3.15234,-13.24609 -10.08984,-14.50781 l -19.55078,-3.78516 c -6.9375,-1.89062 -13.875,3.15234 -15.13672,10.09375 -1.26172,6.30859 3.15234,13.24609 10.08984,14.50781 z m 0,0"
             id="path281" />
          <g
             clip-path="url(#a)"
             id="g285">
            <path
               fill="#ffffff"
               d="m 1049.4023,353.26953 c -1.2617,-18.29297 -8.1953,-36.58594 -19.5468,-51.09766 -18.2891,-24.60156 -47.92972,-41.0039 -80.72659,-41.0039 -0.62891,0 -0.62891,0 -1.26172,0 -2.51953,-9.46094 -6.30469,-18.92578 -11.35157,-27.125 -13.875,-22.71094 -37.20703,-39.74219 -63.0625,-45.42188 -7.57031,-1.26172 -15.13671,-2.52343 -22.70312,-2.52343 -6.9375,0 -13.875,0 -17.66016,6.9414 0,0 -54.86718,102.19531 -54.86718,102.19531 -3.78516,6.9375 0,15.14063 6.9375,17.66407 l 25.22656,8.83203 -97.75,114.8125 22.07031,-88.94922 c 1.26172,-6.30859 -1.89062,-12.61719 -8.19922,-15.14063 l -25.22265,-9.46093 59.91015,-143.20313 c 2.52344,-6.30859 0,-13.24609 -6.30469,-16.40234 -13.875,-6.3086 -28.38281,-10.09375 -43.51562,-10.09375 -25.22656,0 -49.82422,9.46484 -68.11328,26.49609 -6.30469,5.67969 -11.35156,11.98828 -15.76563,18.92578 -15.13672,-8.19922 -31.53125,-12.61718 -49.1914,-12.61718 -22.07032,0 -44.77344,7.57031 -62.4336,21.44921 -6.9375,5.04688 -12.61328,11.35547 -17.65625,18.29297 -0.63281,0.63282 -4.41797,6.94141 -5.04687,6.94141 -3.15235,0 -5.67578,-0.63281 -8.82813,-0.63281 -55.5,0 -100.27343,44.78906 -100.27343,99.67578 0,3.78515 0,8.19922 0.6289,11.98437 -23.33594,13.2461 -37.83984,37.21875 -37.83984,64.34375 0.63281,29.01953 17.02734,54.88672 42.2539,67.5 -1.89062,6.3086 -2.52343,13.25 -2.52343,20.1875 0,46.05078 37.83984,83.90235 84.50781,83.90235 10.72266,0 22.07422,-1.89063 31.53516,-6.3086 11.98046,34.06641 44.77343,58.03907 82.61328,58.03907 17.02734,0 34.05468,-5.04688 47.92968,-14.51172 8.82813,10.09375 19.55079,17.66406 30.90235,22.71093 16.39844,14.51172 83.8789,79.48829 95.85937,159.60547 1.26172,6.3086 6.3086,10.72266 12.61328,10.72266 h 63.06641 c 5.04297,0 10.08984,-3.15234 11.98047,-8.19922 0.63281,-1.89453 15.13672,-39.74609 8.83203,-94.62891 6.30469,0.63282 13.24219,1.26172 19.54688,1.26172 75.67968,0 138.74604,-57.40625 145.05074,-131.84375 29.6407,-15.14062 50.4532,-46.05078 50.4532,-81.3789 0,-0.63282 0,-1.26172 0,-1.89453 10.0898,-13.87891 17.0273,-30.27735 18.9179,-47.3125 0.6328,-3.78516 0.6328,-8.19922 0.6328,-11.98438 0.629,-32.17187 -15.1367,-61.82422 -41.625,-80.75 z M 826.78516,784.76562 h -42.88672 c -11.35157,-54.88281 -46.03907,-104.71875 -76.3086,-138.15234 15.13672,-1.26172 29.01172,-6.30859 40.36328,-13.87891 17.65625,32.80469 47.29688,57.40625 82.61329,68.76172 0,0 0,0.62891 0,0.62891 5.67578,38.48437 0,68.76172 -3.78125,82.64062 z m 49.82031,-100.93359 c -46.66797,0 -89.55469,-27.125 -109.10547,-68.76172 6.30859,-7.57031 11.35547,-16.40234 14.50781,-25.86328 17.65625,13.87891 39.73047,21.44531 63.0625,21.44531 32.16406,0 62.4375,-15.13672 81.35547,-40.37109 15.76563,10.72266 34.05469,17.03125 53.60547,17.03125 5.04687,0 10.08984,-0.62891 15.13672,-1.26172 -10.72266,56.14453 -59.91406,97.78125 -118.5625,97.78125 z M 1059.4961,466.19141 c -17.0313,25.23437 -40.3633,30.28125 -41.625,30.28125 -6.9375,1.26171 -11.3516,7.57031 -10.0899,14.50781 1.2618,6.30859 6.3047,10.72656 12.6133,10.72656 8.1993,0 17.6563,-5.04687 24.5938,-8.83203 -7.5664,28.38672 -33.4219,49.20312 -64.32424,49.20312 -15.13672,0 -29.01172,-5.04687 -40.99219,-13.8789 4.41407,-12.61328 5.67579,-26.49219 6.30469,-34.69531 29.64063,-8.19922 51.71485,-34.69532 51.71485,-66.86719 0,-6.94141 -5.67579,-12.61719 -12.61329,-12.61719 -6.9375,0 -12.61328,5.67578 -12.61328,12.61719 0,24.60156 -20.17968,44.15625 -44.77734,44.15625 -7.56641,0 -15.76563,-1.89063 -22.07422,-5.67578 -6.30469,-3.15625 -13.87109,-1.26172 -17.02734,4.41406 -3.15235,6.30859 -1.26172,13.87891 4.41406,17.03516 8.19922,5.04687 17.66016,7.57031 27.75,8.83203 -0.62891,4.41406 -0.62891,8.83203 -1.89063,13.8789 -1.89453,8.83203 -5.04687,16.39844 -10.08984,23.96875 -14.50781,20.1875 -37.83984,32.17578 -63.06641,32.17578 -23.96484,0 -46.03906,-10.72656 -60.54296,-29.65234 -3.15235,-4.41406 -8.82813,-5.67578 -13.875,-4.41406 -5.04297,1.89062 -8.82813,6.30859 -8.82813,11.35547 -1.26172,32.80468 -28.37891,58.66797 -61.80469,58.66797 -21.4414,0 -41.62109,-10.72266 -52.97265,-29.01954 -4.41797,-6.30859 -13.2461,-7.57031 -18.92188,-2.52343 -11.35156,10.72656 -26.48828,16.40234 -42.2539,16.40234 -30.90235,0 -56.75782,-22.71094 -61.17188,-52.35937 0,-32.80469 15.13281,-54.25391 42.88281,-60.5625 4.41407,-1.26172 7.57032,-3.78516 8.82813,-8.19922 1.26172,-3.78516 0.63281,-8.20313 -1.89063,-11.98438 -6.9375,-8.83203 -10.08984,-19.55859 -10.08984,-30.91406 0,-17.03125 7.56641,-32.17188 21.44141,-42.26563 5.67578,-4.41406 6.9375,-11.98437 2.52343,-17.66406 -4.41406,-5.67578 -11.98437,-6.9375 -17.66015,-2.52344 -20.17969,15.14063 -31.53125,37.85157 -31.53125,62.45313 0,10.72656 2.52343,21.44922 6.9375,31.54297 -27.75,11.98437 -44.14453,37.85156 -46.03907,73.17578 -8.82812,4.41797 -18.28906,6.94141 -27.74609,6.94141 -32.79687,0 -59.28125,-26.4961 -59.28125,-58.66797 0,-7.57032 1.26172,-15.14063 4.41406,-22.71094 1.26172,-3.15234 1.26172,-6.9375 0,-10.09375 -1.26172,-3.15234 -4.41406,-5.67578 -7.57031,-6.9375 -20.80859,-6.30859 -35.31641,-25.23438 -35.31641,-47.31641 0,-16.39843 8.19922,-30.91015 21.44532,-40.37109 6.30468,11.98437 13.24218,18.29297 13.87109,18.92578 5.04688,4.41406 13.24609,4.41406 17.66016,-0.63281 4.41406,-5.04688 4.41406,-13.2461 -0.63282,-17.66406 0,0 -3.78125,-3.78516 -7.5664,-10.09375 -7.56641,-13.2461 -9.46094,-28.38672 -5.67578,-43.52735 7.5664,-32.17187 37.20703,-56.77344 71.89453,-57.40625 -3.15235,11.98828 -2.52344,20.1875 -2.52344,20.81641 0.63281,6.9414 6.9375,11.98828 13.24609,11.35547 6.9375,-0.62891 11.98047,-6.3086 11.35157,-13.2461 0,-0.63281 -1.26172,-21.44922 17.02734,-41.63672 13.875,-15.14062 34.05469,-23.97265 55.49609,-23.97265 13.875,0 27.75,3.78515 39.10157,11.35547 -3.78516,13.25 -3.15235,23.34375 -3.15235,23.97265 0.62891,6.3086 6.30469,11.35547 12.61328,11.35547 0.62891,0 0.62891,0 1.25782,0 6.9375,-0.6289 11.98437,-6.9375 11.35547,-13.8789 0,0 -1.26172,-23.97266 20.17968,-45.41797 13.875,-12.61719 31.53125,-20.1875 51.08203,-20.1875 7.56641,0 14.50391,1.26172 21.44141,3.15234 l -59.91016,143.20313 c -1.26171,3.15234 -1.26171,6.9375 0,10.09375 1.26172,3.15234 3.78125,5.67578 6.9375,6.9375 l 27.11719,10.09375 -33.42578,131.21484 c -1.26172,5.67578 1.26172,11.35547 6.30859,14.50781 5.04297,2.52344 11.35157,1.26172 15.13282,-3.15234 L 841.28906,324.88281 c 2.52344,-3.15234 3.78125,-7.57031 2.52344,-11.35547 -1.26172,-3.78515 -3.78516,-6.9375 -8.19922,-8.83203 l -29.01172,-10.09375 45.40625,-82.64062 c 25.22656,0.63281 47.30078,13.25 61.17578,32.80468 16.39453,25.86719 10.71875,47.94532 10.71875,49.20704 -4.41406,15.76953 19.55078,22.71093 24.59766,6.9375 0,-0.62891 1.26172,-5.67579 1.89062,-13.87891 23.96485,0 45.40625,11.35547 58.65238,29.01953 9.457,12.61719 15.1328,27.75781 15.7656,43.52734 0.6289,12.61719 -2.5234,20.1875 -3.1524,21.44922 -2.5234,6.3086 0.629,13.87891 6.9376,16.40235 6.3046,2.52343 13.871,-0.62891 16.3945,-6.9375 0,0 0.6328,-1.89453 1.8945,-5.04688 13.2422,13.87891 20.1797,31.53906 20.1797,50.46485 -0.6328,9.46484 -3.1523,20.1875 -7.5664,30.28125 z m 0,0"
               id="path283" />
          </g>
          <path
             fill="#ffffff"
             d="m 1014.0859,235.93359 c 5.6758,4.41797 13.2461,3.15625 17.6602,-2.52343 l 17.0273,-22.07813 c 4.4141,-5.67969 3.1524,-13.24609 -2.5234,-17.66406 -5.6758,-4.41406 -13.2422,-3.15235 -17.6562,2.52344 l -17.0274,22.07812 c -3.7852,5.67969 -2.5234,13.87891 2.5195,17.66406 z m 0,0"
             id="path287" />
          <path
             fill="#ffffff"
             d="m 975.61719,166.54297 c -6.9375,1.26172 -11.35157,8.19922 -10.08985,14.50781 l 3.15235,18.29688 c 1.26172,6.30468 6.30859,10.08984 12.61328,10.08984 7.5664,0 13.875,-7.56641 12.61328,-15.13672 l -3.15234,-18.29687 c -1.26172,-6.3086 -8.19922,-10.72266 -15.13672,-9.46094 z m 0,0"
             id="path289" />
          <path
             fill="#ffffff"
             d="m 1046.8828,257.38281 c 1.2578,6.3086 6.3047,10.09375 12.6133,10.09375 0.6289,0 22.0703,-3.78515 22.0703,-3.78515 6.9375,-1.26172 11.3516,-7.57032 10.0899,-14.50782 -1.2618,-6.9414 -7.5665,-11.35547 -14.504,-10.09375 l -19.5507,3.78516 c -7.5664,0.62891 -11.9805,7.57031 -10.7188,14.50781 z m 0,0"
             id="path291" />
        </g>
      </g>
      <g
         aria-label="ESTRÉS EN"
         transform="matrix(1.5500597,0,0,1.5500597,263.52827,-751.21741)"
         id="text5516"
         style="font-size:74.6667px;line-height:1.25;font-family:Bungee;white-space:pre;shape-inside:url(#rect5518)">
        <path
           d="m 293.44238,497.45881 h -34.64535 q -1.41866,0 -2.09066,-0.59733 -0.59734,-0.672 -0.59734,-2.09067 v -48.38402 q 0,-1.41867 0.59734,-2.016 0.672,-0.672 2.09066,-0.672 h 34.64535 q 1.41867,0 2.01601,0.672 0.672,0.59733 0.672,2.016 v 8.736 q 0,1.41867 -0.672,2.09067 -0.59734,0.59733 -2.01601,0.59733 h -20.608 v 5.74934 h 14.56 q 1.41867,0 2.016,0.672 0.672,0.59733 0.672,2.016 v 7.98934 q 0,1.41866 -0.672,2.09066 -0.59733,0.59734 -2.016,0.59734 h -14.56 v 6.42133 h 20.608 q 1.41867,0 2.01601,0.672 0.672,0.59734 0.672,2.01601 v 8.736 q 0,1.41867 -0.672,2.09067 -0.59734,0.59733 -2.01601,0.59733 z"
           style="-inkscape-font-specification:'Bungee, Normal';fill:#f7582d"
           id="path34" />
        <path
           d="m 329.87969,497.45881 h -23.59468 q -1.41867,0 -2.09067,-0.59733 -0.59733,-0.672 -0.59733,-2.09067 v -8.736 q 0,-1.41867 0.59733,-2.01601 0.672,-0.672 2.09067,-0.672 h 20.08534 q 0.97067,0 1.41867,-0.59733 0.52267,-0.672 0.52267,-1.568 0,-1.26933 -0.52267,-1.86667 -0.448,-0.59733 -1.41867,-0.672 l -11.2,-1.568 q -5.22667,-0.74667 -8.43734,-3.43467 -3.136,-2.688 -3.136,-8.96 v -7.84 q 0,-6.34667 4.10667,-9.70668 4.10666,-3.43466 11.34933,-3.43466 h 20.90668 q 1.41867,0 2.016,0.672 0.672,0.59733 0.672,2.016 v 8.88533 q 0,1.41867 -0.672,2.09067 -0.59733,0.59734 -2.016,0.59734 h -17.39734 q -0.97067,0 -1.49333,0.672 -0.52267,0.59733 -0.52267,1.568 0,0.97066 0.52267,1.64266 0.52266,0.672 1.49333,0.74667 l 11.12534,1.49334 q 5.22667,0.74666 8.43734,3.43466 3.21066,2.688 3.21066,8.96001 v 7.84 q 0,6.34667 -4.18133,9.78134 -4.10667,3.36 -11.27467,3.36 z"
           style="-inkscape-font-specification:'Bungee, Normal';fill:#f7582d"
           id="path36" />
        <path
           d="m 378.11433,497.45881 h -12.096 q -1.41867,0 -2.09067,-0.59733 -0.59733,-0.672 -0.59733,-2.09067 v -36.66135 h -10.97601 q -1.41867,0 -2.09067,-0.59733 -0.59733,-0.672 -0.59733,-2.09067 v -9.03467 q 0,-1.41867 0.59733,-2.016 0.672,-0.672 2.09067,-0.672 h 39.42402 q 1.41867,0 2.016,0.672 0.672,0.59733 0.672,2.016 v 9.03467 q 0,1.41867 -0.672,2.09067 -0.59733,0.59733 -2.016,0.59733 h -10.976 v 36.66135 q 0,1.41867 -0.672,2.09067 -0.59734,0.59733 -2.01601,0.59733 z"
           style="-inkscape-font-specification:'Bungee, Normal';fill:#f7582d"
           id="path38" />
        <path
           d="m 418.58355,457.13879 v 9.55734 h 5.6 q 1.94133,0 2.61333,-0.97067 0.672,-1.04533 0.672,-2.53867 v -2.53866 q 0,-1.49334 -0.672,-2.464 -0.672,-1.04534 -2.61333,-1.04534 z m -2.688,40.32002 h -11.49868 q -1.41866,0 -2.09066,-0.59733 -0.59734,-0.672 -0.59734,-2.09067 v -48.38402 q 0,-1.41867 0.59734,-2.016 0.672,-0.672 2.09066,-0.672 h 24.86402 q 8.36267,0 11.49867,3.50933 3.21067,3.43467 3.21067,8.96 v 3.43467 q 0,3.136 -0.97067,5.37601 -0.896,2.16533 -3.21067,3.136 4.032,0.448 6.496,3.28533 2.53867,2.83734 2.53867,7.54134 v 15.82934 q 0,1.41867 -0.672,2.09067 -0.59733,0.59733 -2.016,0.59733 h -11.57334 q -1.41867,0 -2.09067,-0.59733 -0.59733,-0.672 -0.59733,-2.09067 V 483.3468 q 0,-1.64266 -0.672,-2.38933 -0.59733,-0.82133 -2.16534,-0.82133 h -10.45333 v 14.63467 q 0,1.41867 -0.672,2.09067 -0.59734,0.59733 -2.016,0.59733 z"
           style="-inkscape-font-specification:'Bungee, Normal';fill:#f7582d"
           id="path40" />
        <path
           d="m 494.51944,497.45881 h -34.64535 q -1.41867,0 -2.09067,-0.59733 -0.59733,-0.672 -0.59733,-2.09067 v -48.38402 q 0,-1.41867 0.59733,-2.016 0.672,-0.672 2.09067,-0.672 h 34.64535 q 1.41867,0 2.016,0.672 0.672,0.59733 0.672,2.016 v 8.736 q 0,1.41867 -0.672,2.09067 -0.59733,0.59733 -2.016,0.59733 h -20.60801 v 5.74934 h 14.56001 q 1.41867,0 2.016,0.672 0.672,0.59733 0.672,2.016 v 7.98934 q 0,1.41866 -0.672,2.09066 -0.59733,0.59734 -2.016,0.59734 h -14.56001 v 6.42133 h 20.60801 q 1.41867,0 2.016,0.672 0.672,0.59734 0.672,2.01601 v 8.736 q 0,1.41867 -0.672,2.09067 -0.59733,0.59733 -2.016,0.59733 z m -2.912,-59.43469 -26.05868,3.21066 q -1.26933,0.14934 -1.94133,-0.52266 -0.59734,-0.672 -0.59734,-1.94134 v -7.168 q 0,-1.41867 0.59734,-1.94133 0.672,-0.59734 2.09066,-0.74667 l 26.05868,-3.21067 q 1.26934,-0.14933 1.86667,0.52267 0.672,0.672 0.672,1.94133 v 7.168 q 0,1.41867 -0.672,2.01601 -0.59733,0.52266 -2.016,0.672 z"
           style="-inkscape-font-specification:'Bungee, Normal';fill:#f7582d"
           id="path42" />
        <path
           d="m 530.95674,497.45881 h -23.59468 q -1.41867,0 -2.09067,-0.59733 -0.59733,-0.672 -0.59733,-2.09067 v -8.736 q 0,-1.41867 0.59733,-2.01601 0.672,-0.672 2.09067,-0.672 h 20.08534 q 0.97067,0 1.41867,-0.59733 0.52267,-0.672 0.52267,-1.568 0,-1.26933 -0.52267,-1.86667 -0.448,-0.59733 -1.41867,-0.672 l -11.2,-1.568 q -5.22667,-0.74667 -8.43734,-3.43467 -3.136,-2.688 -3.136,-8.96 v -7.84 q 0,-6.34667 4.10667,-9.70668 4.10667,-3.43466 11.34934,-3.43466 h 20.90667 q 1.41867,0 2.01601,0.672 0.672,0.59733 0.672,2.016 v 8.88533 q 0,1.41867 -0.672,2.09067 -0.59734,0.59734 -2.01601,0.59734 H 523.6394 q -0.97066,0 -1.49333,0.672 -0.52267,0.59733 -0.52267,1.568 0,0.97066 0.52267,1.64266 0.52267,0.672 1.49333,0.74667 l 11.12534,1.49334 q 5.22667,0.74666 8.43734,3.43466 3.21067,2.688 3.21067,8.96001 v 7.84 q 0,6.34667 -4.18134,9.78134 -4.10667,3.36 -11.27467,3.36 z"
           style="-inkscape-font-specification:'Bungee, Normal';fill:#f7582d"
           id="path44" />
        <path
           d="m 608.68463,497.45881 h -34.64535 q -1.41866,0 -2.09066,-0.59733 -0.59734,-0.672 -0.59734,-2.09067 v -48.38402 q 0,-1.41867 0.59734,-2.016 0.672,-0.672 2.09066,-0.672 h 34.64535 q 1.41867,0 2.016,0.672 0.672,0.59733 0.672,2.016 v 8.736 q 0,1.41867 -0.672,2.09067 -0.59733,0.59733 -2.016,0.59733 h -20.60801 v 5.74934 h 14.56001 q 1.41867,0 2.016,0.672 0.672,0.59733 0.672,2.016 v 7.98934 q 0,1.41866 -0.672,2.09066 -0.59733,0.59734 -2.016,0.59734 h -14.56001 v 6.42133 h 20.60801 q 1.41867,0 2.016,0.672 0.672,0.59734 0.672,2.01601 v 8.736 q 0,1.41867 -0.672,2.09067 -0.59733,0.59733 -2.016,0.59733 z"
           style="-inkscape-font-specification:'Bungee, Normal';fill:#f7582d"
           id="path46" />
        <path
           d="m 634.07126,497.45881 h -11.20001 q -1.41866,0 -2.09066,-0.59733 -0.59734,-0.672 -0.59734,-2.09067 v -48.38402 q 0,-1.41867 0.59734,-2.016 0.672,-0.672 2.09066,-0.672 h 7.76534 q 1.41867,0 2.38934,0.448 1.04533,0.448 2.016,1.568 l 14.48534,16.576 v -15.904 q 0,-1.41867 0.59733,-2.016 0.672,-0.672 2.09067,-0.672 h 11.2 q 1.41867,0 2.016,0.672 0.672,0.59733 0.672,2.016 v 48.38402 q 0,1.41867 -0.672,2.09067 -0.59733,0.59733 -2.016,0.59733 h -11.2 q -1.41867,0 -2.09067,-0.59733 -0.59733,-0.672 -0.59733,-2.09067 v -9.184 L 636.75926,470.1308 v 24.64001 q 0,1.41867 -0.672,2.09067 -0.59733,0.59733 -2.016,0.59733 z"
           style="-inkscape-font-specification:'Bungee, Normal';fill:#f7582d"
           id="path48" />
      </g>
      <g
         aria-label="TRANSPORTES"
         transform="matrix(2.8598087,0,0,2.8598087,-92.128361,-1835.8715)"
         id="text24433"
         style="font-size:40px;line-height:1.25;font-family:Bungee;white-space:pre;shape-inside:url(#rect24435)">
        <path
           d="m 278.33852,682.05039 h -6.48 q -0.76,0 -1.12,-0.32 -0.32,-0.36 -0.32,-1.12 v -19.64 h -5.88 q -0.76,0 -1.12,-0.32 -0.32,-0.36 -0.32,-1.12 v -4.84 q 0,-0.76 0.32,-1.08 0.36,-0.36 1.12,-0.36 h 21.12 q 0.76,0 1.08,0.36 0.36,0.32 0.36,1.08 v 4.84 q 0,0.76 -0.36,1.12 -0.32,0.32 -1.08,0.32 h -5.88 v 19.64 q 0,0.76 -0.36,1.12 -0.32,0.32 -1.08,0.32 z"
           style="-inkscape-font-specification:'Bungee, Normal';fill:#f7582d"
           id="path69" />
        <path
           d="m 300.01844,660.45039 v 5.12 h 3 q 1.04,0 1.4,-0.52 0.36,-0.56 0.36,-1.36 v -1.36 q 0,-0.8 -0.36,-1.32 -0.36,-0.56 -1.4,-0.56 z m -1.44,21.6 h -6.16 q -0.76,0 -1.12,-0.32 -0.32,-0.36 -0.32,-1.12 v -25.92 q 0,-0.76 0.32,-1.08 0.36,-0.36 1.12,-0.36 h 13.32 q 4.48,0 6.16,1.88 1.72,1.84 1.72,4.8 v 1.84 q 0,1.68 -0.52,2.88 -0.48,1.16 -1.72,1.68 2.16,0.24 3.48,1.76 1.36,1.52 1.36,4.04 v 8.48 q 0,0.76 -0.36,1.12 -0.32,0.32 -1.08,0.32 h -6.2 q -0.76,0 -1.12,-0.32 -0.32,-0.36 -0.32,-1.12 v -6.12 q 0,-0.88 -0.36,-1.28 -0.32,-0.44 -1.16,-0.44 h -5.6 v 7.84 q 0,0.76 -0.36,1.12 -0.32,0.32 -1.08,0.32 z"
           style="-inkscape-font-specification:'Bungee, Normal';fill:#f7582d"
           id="path71" />
        <path
           d="m 331.13837,661.65039 -1.88,6.08 h 6.28 l -1.88,-6.08 q -0.16,-0.36 -0.36,-0.52 -0.16,-0.16 -0.4,-0.16 h -1 q -0.24,0 -0.44,0.16 -0.16,0.16 -0.32,0.52 z m -2.28,18.96 q 0,0.76 -0.36,1.12 -0.32,0.32 -1.08,0.32 h -5.88 q -0.76,0 -1.12,-0.32 -0.32,-0.36 -0.32,-1.12 v -10.56 q 0,-1.2 0.36,-2.76 0.4,-1.56 1.2,-3.64 l 3.48,-9.08 q 0.24,-0.68 0.72,-1 0.52,-0.32 1.32,-0.32 h 10.76 q 0.76,0 1.24,0.32 0.52,0.32 0.76,1 l 3.48,9.08 q 0.8,2.08 1.16,3.64 0.4,1.56 0.4,2.76 v 10.56 q 0,0.76 -0.36,1.12 -0.32,0.32 -1.08,0.32 h -6.04 q -0.8,0 -1.2,-0.32 -0.36,-0.36 -0.36,-1.12 v -5.6 h -7.08 z"
           style="-inkscape-font-specification:'Bungee, Normal';fill:#f7582d"
           id="path73" />
        <path
           d="m 357.33835,682.05039 h -6 q -0.76,0 -1.12,-0.32 -0.32,-0.36 -0.32,-1.12 v -25.92 q 0,-0.76 0.32,-1.08 0.36,-0.36 1.12,-0.36 h 4.16 q 0.76,0 1.28,0.24 0.56,0.24 1.08,0.84 l 7.76,8.88 v -8.52 q 0,-0.76 0.32,-1.08 0.36,-0.36 1.12,-0.36 h 6 q 0.76,0 1.08,0.36 0.36,0.32 0.36,1.08 v 25.92 q 0,0.76 -0.36,1.12 -0.32,0.32 -1.08,0.32 h -6 q -0.76,0 -1.12,-0.32 -0.32,-0.36 -0.32,-1.12 v -4.92 l -6.84,-8.28 v 13.2 q 0,0.76 -0.36,1.12 -0.32,0.32 -1.08,0.32 z"
           style="-inkscape-font-specification:'Bungee, Normal';fill:#f7582d"
           id="path75" />
        <path
           d="m 393.37829,682.05039 h -12.64 q -0.76,0 -1.12,-0.32 -0.32,-0.36 -0.32,-1.12 v -4.68 q 0,-0.76 0.32,-1.08 0.36,-0.36 1.12,-0.36 h 10.76 q 0.52,0 0.76,-0.32 0.28,-0.36 0.28,-0.84 0,-0.68 -0.28,-1 -0.24,-0.32 -0.76,-0.36 l -6,-0.84 q -2.8,-0.4 -4.52,-1.84 -1.68,-1.44 -1.68,-4.8 v -4.2 q 0,-3.4 2.2,-5.2 2.2,-1.84 6.08,-1.84 h 11.2 q 0.76,0 1.08,0.36 0.36,0.32 0.36,1.08 v 4.76 q 0,0.76 -0.36,1.12 -0.32,0.32 -1.08,0.32 h -9.32 q -0.52,0 -0.8,0.36 -0.28,0.32 -0.28,0.84 0,0.52 0.28,0.88 0.28,0.36 0.8,0.4 l 5.96,0.8 q 2.8,0.4 4.52,1.84 1.72,1.44 1.72,4.8 v 4.2 q 0,3.4 -2.24,5.24 -2.2,1.8 -6.04,1.8 z"
           style="-inkscape-font-specification:'Bungee, Normal';fill:#f7582d"
           id="path77" />
        <path
           d="m 413.65827,682.05039 h -6.2 q -0.76,0 -1.12,-0.32 -0.32,-0.36 -0.32,-1.12 v -25.92 q 0,-0.76 0.32,-1.08 0.36,-0.36 1.12,-0.36 h 12.24 q 5.44,0 7.44,2.16 2,2.16 2,5.64 v 5.12 q 0,3.48 -2,5.64 -2,2.16 -7.44,2.16 h -4.6 v 6.64 q 0,0.76 -0.36,1.12 -0.32,0.32 -1.08,0.32 z m 1.36,-21.32 v 6.04 h 3.6 q 1.16,0 1.52,-0.6 0.36,-0.6 0.36,-1.36 v -2.12 q 0,-0.76 -0.36,-1.36 -0.36,-0.6 -1.52,-0.6 z"
           style="-inkscape-font-specification:'Bungee, Normal';fill:#f7582d"
           id="path79" />
        <path
           d="m 457.69824,674.49039 q 0,1.84 -0.56,3.36 -0.52,1.48 -1.92,2.56 -1.36,1.04 -3.8,1.64 -2.4,0.6 -6.12,0.6 -3.72,0 -6.16,-0.6 -2.44,-0.6 -3.84,-1.64 -1.36,-1.08 -1.92,-2.56 -0.52,-1.52 -0.52,-3.36 v -13.64 q 0,-1.84 0.52,-3.32 0.56,-1.52 1.92,-2.6 1.4,-1.08 3.84,-1.68 2.44,-0.6 6.16,-0.6 3.72,0 6.12,0.6 2.44,0.6 3.8,1.68 1.4,1.08 1.92,2.6 0.56,1.48 0.56,3.32 z m -15.76,-1.44 q 0,0.8 0.6,1.36 0.6,0.52 2.76,0.52 2.16,0 2.76,-0.52 0.6,-0.56 0.6,-1.36 v -10.76 q 0,-0.76 -0.6,-1.28 -0.6,-0.56 -2.76,-0.56 -2.16,0 -2.76,0.56 -0.6,0.52 -0.6,1.28 z"
           style="-inkscape-font-specification:'Bungee, Normal';fill:#f7582d"
           id="path81" />
        <path
           d="m 471.81822,660.45039 v 5.12 h 3 q 1.04,0 1.4,-0.52 0.36,-0.56 0.36,-1.36 v -1.36 q 0,-0.8 -0.36,-1.32 -0.36,-0.56 -1.4,-0.56 z m -1.44,21.6 h -6.16 q -0.76,0 -1.12,-0.32 -0.32,-0.36 -0.32,-1.12 v -25.92 q 0,-0.76 0.32,-1.08 0.36,-0.36 1.12,-0.36 h 13.32 q 4.48,0 6.16,1.88 1.72,1.84 1.72,4.8 v 1.84 q 0,1.68 -0.52,2.88 -0.48,1.16 -1.72,1.68 2.16,0.24 3.48,1.76 1.36,1.52 1.36,4.04 v 8.48 q 0,0.76 -0.36,1.12 -0.32,0.32 -1.08,0.32 h -6.2 q -0.76,0 -1.12,-0.32 -0.32,-0.36 -0.32,-1.12 v -6.12 q 0,-0.88 -0.36,-1.28 -0.32,-0.44 -1.16,-0.44 h -5.6 v 7.84 q 0,0.76 -0.36,1.12 -0.32,0.32 -1.08,0.32 z"
           style="-inkscape-font-specification:'Bungee, Normal';fill:#f7582d"
           id="path83" />
        <path
           d="m 504.89812,682.05039 h -6.48 q -0.76,0 -1.12,-0.32 -0.32,-0.36 -0.32,-1.12 v -19.64 h -5.88 q -0.76,0 -1.12,-0.32 -0.32,-0.36 -0.32,-1.12 v -4.84 q 0,-0.76 0.32,-1.08 0.36,-0.36 1.12,-0.36 h 21.12 q 0.76,0 1.08,0.36 0.36,0.32 0.36,1.08 v 4.84 q 0,0.76 -0.36,1.12 -0.32,0.32 -1.08,0.32 h -5.88 v 19.64 q 0,0.76 -0.36,1.12 -0.32,0.32 -1.08,0.32 z"
           style="-inkscape-font-specification:'Bungee, Normal';fill:#f7582d"
           id="path85" />
        <path
           d="m 537.53805,682.05039 h -18.56 q -0.76,0 -1.12,-0.32 -0.32,-0.36 -0.32,-1.12 v -25.92 q 0,-0.76 0.32,-1.08 0.36,-0.36 1.12,-0.36 h 18.56 q 0.76,0 1.08,0.36 0.36,0.32 0.36,1.08 v 4.68 q 0,0.76 -0.36,1.12 -0.32,0.32 -1.08,0.32 h -11.04 v 3.08 h 7.8 q 0.76,0 1.08,0.36 0.36,0.32 0.36,1.08 v 4.28 q 0,0.76 -0.36,1.12 -0.32,0.32 -1.08,0.32 h -7.8 v 3.44 h 11.04 q 0.76,0 1.08,0.36 0.36,0.32 0.36,1.08 v 4.68 q 0,0.76 -0.36,1.12 -0.32,0.32 -1.08,0.32 z"
           style="-inkscape-font-specification:'Bungee, Normal';fill:#f7582d"
           id="path87" />
        <path
           d="m 557.05802,682.05039 h -12.64 q -0.76,0 -1.12,-0.32 -0.32,-0.36 -0.32,-1.12 v -4.68 q 0,-0.76 0.32,-1.08 0.36,-0.36 1.12,-0.36 h 10.76 q 0.52,0 0.76,-0.32 0.28,-0.36 0.28,-0.84 0,-0.68 -0.28,-1 -0.24,-0.32 -0.76,-0.36 l -6,-0.84 q -2.8,-0.4 -4.52,-1.84 -1.68,-1.44 -1.68,-4.8 v -4.2 q 0,-3.4 2.2,-5.2 2.2,-1.84 6.08,-1.84 h 11.2 q 0.76,0 1.08,0.36 0.36,0.32 0.36,1.08 v 4.76 q 0,0.76 -0.36,1.12 -0.32,0.32 -1.08,0.32 h -9.32 q -0.52,0 -0.8,0.36 -0.28,0.32 -0.28,0.84 0,0.52 0.28,0.88 0.28,0.36 0.8,0.4 l 5.96,0.8 q 2.8,0.4 4.52,1.84 1.72,1.44 1.72,4.8 v 4.2 q 0,3.4 -2.24,5.24 -2.2,1.8 -6.04,1.8 z"
           style="-inkscape-font-specification:'Bungee, Normal';fill:#f7582d"
           id="path89" />
      </g>
    </g>
  </g>
</svg>
