<?xml version="1.0" encoding="UTF-8" standalone="no"?>
<!-- Created with Inkscape (http://www.inkscape.org/) -->

<svg
   width="48"
   height="48"
   viewBox="0 0 12.7 12.7"
   version="1.1"
   id="svg5"
   inkscape:version="1.1.1 (3bf5ae0d25, 2021-09-20)"
   sodipodi:docname="logo page.svg"
   inkscape:export-filename="C:\Users\victo\Desktop\dibujo.png"
   inkscape:export-xdpi="96"
   inkscape:export-ydpi="96"
   xmlns:inkscape="http://www.inkscape.org/namespaces/inkscape"
   xmlns:sodipodi="http://sodipodi.sourceforge.net/DTD/sodipodi-0.dtd"
   xmlns="http://www.w3.org/2000/svg"
   xmlns:svg="http://www.w3.org/2000/svg">
  <sodipodi:namedview
     id="namedview7"
     pagecolor="#ffffff"
     bordercolor="#666666"
     borderopacity="1.0"
     inkscape:pageshadow="2"
     inkscape:pageopacity="0.0"
     inkscape:pagecheckerboard="0"
     inkscape:document-units="mm"
     showgrid="false"
     inkscape:zoom="1.6680498"
     inkscape:cx="83.630594"
     inkscape:cy="128.89303"
     inkscape:window-width="1440"
     inkscape:window-height="890"
     inkscape:window-x="-6"
     inkscape:window-y="-6"
     inkscape:window-maximized="1"
     inkscape:current-layer="g42"
     height="209mm"
     units="px" />
  <defs
     id="defs2">
    <rect
       x="261.97778"
       y="642.651"
       width="322.17331"
       height="53.412949"
       id="rect24435" />
    <rect
       x="250.95605"
       y="423.91226"
       width="518.86859"
       height="115.30413"
       id="rect5518" />
    <clipPath
       id="a">
      <path
         d="M 346.38672,153 H 1092 V 810 H 346.38672 Z m 0,0"
         id="path260" />
    </clipPath>
  </defs>
  <g
     inkscape:label="Capa 1"
     inkscape:groupmode="layer"
     id="layer1" />
  <g
     inkscape:groupmode="layer"
     id="layer2"
     inkscape:label="Trazado">
    <g
       id="g42"
       transform="matrix(0.26458333,0,0,0.26458333,-109.96903,32.370941)">
      <g
         id="g278"
         transform="matrix(0.04407047,0,0,0.04407047,402.46284,-112.62261)">
        <path
           fill="#fc9219"
           d="m 852.60153,-123.78237 c -256.46168,0 -464.34778,207.886043 -464.34778,464.34772 0,256.46165 207.8861,464.34772 464.34778,464.34772 H 1316.9494 V 340.56535 c 0.08,-256.461677 -207.8861,-464.34772 -464.34787,-464.34772 z m 0,0"
           id="path30"
           style="stroke-width:1.14654" />
        <g
           id="g313"
           transform="translate(141.5867,-57.652063)">
          <path
             fill="#ffffff"
             d="m 895.52344,152.03125 c 5.67578,3.78516 13.875,1.89453 17.66015,-3.78516 l 23.96485,-35.95703 c 0,0 15.13672,13.87891 15.13672,13.87891 5.67578,5.04687 15.13281,3.78515 19.54687,-3.15234 l 30.27347,-51.101568 c 3.7851,-6.304687 1.2617,-13.875 -4.41409,-17.03125 -6.3086,-3.785156 -13.875,-1.261718 -17.02735,4.417969 L 958.58984,97.148438 943.45312,83.902344 c -2.52343,-2.523438 -6.30468,-3.785156 -10.08984,-3.15625 -3.78516,0.632812 -6.9375,2.523437 -8.82812,5.679687 L 893,135 c -5.04297,5.04687 -3.15234,13.24609 2.52344,17.03125 z m 0,0"
             id="path271" />
          <path
             fill="#ffffff"
             d="m 720.20312,114.8125 c 6.30469,3.15625 13.875,0.63281 17.02735,-5.04687 l 21.4414,-41.003911 25.85938,10.722656 c 6.30469,2.523437 13.24219,0 16.39453,-6.308594 L 825.52344,20.1875 c 3.15234,-6.308594 0,-13.878906 -6.3086,-17.035156 -6.30468,-3.152344 -13.875,0 -17.02734,6.308594 L 782.63672,51.097656 757.41016,40.375 c -6.30469,-2.523438 -13.24219,0 -15.76563,5.675781 l -27.11719,51.097657 c -3.15234,6.308592 -0.63281,13.878902 5.67578,17.664062 z m 0,0"
             id="path273" />
          <path
             fill="#ffffff"
             d="m 541.72656,111.02734 c 1.89453,3.15625 5.04688,5.04688 8.19922,5.67969 3.15234,0.62891 6.9375,-0.63281 9.46094,-2.52344 l 20.17969,-15.773434 c 0,0 28.3789,37.851564 28.3789,37.851564 4.41406,5.67578 11.98438,6.9375 17.66016,2.52344 5.67578,-4.41407 6.9375,-11.98438 2.52344,-17.66407 L 591.55078,72.546875 c -1.89453,-2.523437 -5.04687,-4.414063 -8.19922,-5.046875 -3.15234,-0.628906 -6.9375,0.632812 -9.46094,2.523438 L 554.33984,85.164062 527.22266,45.421875 C 524.07031,40.375 516.5,38.480469 510.82422,42.265625 c -5.67578,4.417969 -7.56641,11.988281 -3.78125,17.664063 z m 0,0"
             id="path275" />
          <path
             fill="#ffffff"
             d="m 413.70703,195.5625 c 4.41406,5.67578 11.98047,6.9375 17.65625,2.52344 5.67578,-4.41797 6.9375,-11.98828 2.52344,-17.66407 l -17.02735,-22.08203 c -4.41406,-5.67578 -11.98437,-6.9375 -17.66015,-2.52343 -5.67578,4.41796 -6.9375,11.98828 -2.51953,17.66406 z m 0,0"
             id="path277" />
          <path
             fill="#ffffff"
             d="m 461.63672,171.58984 c 6.93359,1.26172 13.24219,-3.15625 14.5039,-10.09375 l 3.15235,-18.29687 c 1.26172,-6.9375 -3.15235,-13.2461 -10.08985,-14.50781 -6.9375,-1.26172 -13.24218,3.15625 -14.5039,10.09375 l -3.15625,18.29296 c -1.25781,6.94141 3.15625,13.25 10.09375,14.51172 z m 0,0"
             id="path279" />
          <path
             fill="#ffffff"
             d="m 363.88281,225.83984 c 0,0 21.44141,3.78516 22.07422,3.78516 5.67578,0 11.35156,-4.41406 12.61328,-10.09375 1.26172,-6.9375 -3.15234,-13.24609 -10.08984,-14.50781 l -19.55078,-3.78516 c -6.9375,-1.89062 -13.875,3.15234 -15.13672,10.09375 -1.26172,6.30859 3.15234,13.24609 10.08984,14.50781 z m 0,0"
             id="path281" />
          <g
             clip-path="url(#a)"
             id="g285">
            <path
               fill="#ffffff"
               d="m 1049.4023,353.26953 c -1.2617,-18.29297 -8.1953,-36.58594 -19.5468,-51.09766 -18.2891,-24.60156 -47.92972,-41.0039 -80.72659,-41.0039 -0.62891,0 -0.62891,0 -1.26172,0 -2.51953,-9.46094 -6.30469,-18.92578 -11.35157,-27.125 -13.875,-22.71094 -37.20703,-39.74219 -63.0625,-45.42188 -7.57031,-1.26172 -15.13671,-2.52343 -22.70312,-2.52343 -6.9375,0 -13.875,0 -17.66016,6.9414 0,0 -54.86718,102.19531 -54.86718,102.19531 -3.78516,6.9375 0,15.14063 6.9375,17.66407 l 25.22656,8.83203 -97.75,114.8125 22.07031,-88.94922 c 1.26172,-6.30859 -1.89062,-12.61719 -8.19922,-15.14063 l -25.22265,-9.46093 59.91015,-143.20313 c 2.52344,-6.30859 0,-13.24609 -6.30469,-16.40234 -13.875,-6.3086 -28.38281,-10.09375 -43.51562,-10.09375 -25.22656,0 -49.82422,9.46484 -68.11328,26.49609 -6.30469,5.67969 -11.35156,11.98828 -15.76563,18.92578 -15.13672,-8.19922 -31.53125,-12.61718 -49.1914,-12.61718 -22.07032,0 -44.77344,7.57031 -62.4336,21.44921 -6.9375,5.04688 -12.61328,11.35547 -17.65625,18.29297 -0.63281,0.63282 -4.41797,6.94141 -5.04687,6.94141 -3.15235,0 -5.67578,-0.63281 -8.82813,-0.63281 -55.5,0 -100.27343,44.78906 -100.27343,99.67578 0,3.78515 0,8.19922 0.6289,11.98437 -23.33594,13.2461 -37.83984,37.21875 -37.83984,64.34375 0.63281,29.01953 17.02734,54.88672 42.2539,67.5 -1.89062,6.3086 -2.52343,13.25 -2.52343,20.1875 0,46.05078 37.83984,83.90235 84.50781,83.90235 10.72266,0 22.07422,-1.89063 31.53516,-6.3086 11.98046,34.06641 44.77343,58.03907 82.61328,58.03907 17.02734,0 34.05468,-5.04688 47.92968,-14.51172 8.82813,10.09375 19.55079,17.66406 30.90235,22.71093 16.39844,14.51172 83.8789,79.48829 95.85937,159.60547 1.26172,6.3086 6.3086,10.72266 12.61328,10.72266 h 63.06641 c 5.04297,0 10.08984,-3.15234 11.98047,-8.19922 0.63281,-1.89453 15.13672,-39.74609 8.83203,-94.62891 6.30469,0.63282 13.24219,1.26172 19.54688,1.26172 75.67968,0 138.74604,-57.40625 145.05074,-131.84375 29.6407,-15.14062 50.4532,-46.05078 50.4532,-81.3789 0,-0.63282 0,-1.26172 0,-1.89453 10.0898,-13.87891 17.0273,-30.27735 18.9179,-47.3125 0.6328,-3.78516 0.6328,-8.19922 0.6328,-11.98438 0.629,-32.17187 -15.1367,-61.82422 -41.625,-80.75 z M 826.78516,784.76562 h -42.88672 c -11.35157,-54.88281 -46.03907,-104.71875 -76.3086,-138.15234 15.13672,-1.26172 29.01172,-6.30859 40.36328,-13.87891 17.65625,32.80469 47.29688,57.40625 82.61329,68.76172 0,0 0,0.62891 0,0.62891 5.67578,38.48437 0,68.76172 -3.78125,82.64062 z m 49.82031,-100.93359 c -46.66797,0 -89.55469,-27.125 -109.10547,-68.76172 6.30859,-7.57031 11.35547,-16.40234 14.50781,-25.86328 17.65625,13.87891 39.73047,21.44531 63.0625,21.44531 32.16406,0 62.4375,-15.13672 81.35547,-40.37109 15.76563,10.72266 34.05469,17.03125 53.60547,17.03125 5.04687,0 10.08984,-0.62891 15.13672,-1.26172 -10.72266,56.14453 -59.91406,97.78125 -118.5625,97.78125 z M 1059.4961,466.19141 c -17.0313,25.23437 -40.3633,30.28125 -41.625,30.28125 -6.9375,1.26171 -11.3516,7.57031 -10.0899,14.50781 1.2618,6.30859 6.3047,10.72656 12.6133,10.72656 8.1993,0 17.6563,-5.04687 24.5938,-8.83203 -7.5664,28.38672 -33.4219,49.20312 -64.32424,49.20312 -15.13672,0 -29.01172,-5.04687 -40.99219,-13.8789 4.41407,-12.61328 5.67579,-26.49219 6.30469,-34.69531 29.64063,-8.19922 51.71485,-34.69532 51.71485,-66.86719 0,-6.94141 -5.67579,-12.61719 -12.61329,-12.61719 -6.9375,0 -12.61328,5.67578 -12.61328,12.61719 0,24.60156 -20.17968,44.15625 -44.77734,44.15625 -7.56641,0 -15.76563,-1.89063 -22.07422,-5.67578 -6.30469,-3.15625 -13.87109,-1.26172 -17.02734,4.41406 -3.15235,6.30859 -1.26172,13.87891 4.41406,17.03516 8.19922,5.04687 17.66016,7.57031 27.75,8.83203 -0.62891,4.41406 -0.62891,8.83203 -1.89063,13.8789 -1.89453,8.83203 -5.04687,16.39844 -10.08984,23.96875 -14.50781,20.1875 -37.83984,32.17578 -63.06641,32.17578 -23.96484,0 -46.03906,-10.72656 -60.54296,-29.65234 -3.15235,-4.41406 -8.82813,-5.67578 -13.875,-4.41406 -5.04297,1.89062 -8.82813,6.30859 -8.82813,11.35547 -1.26172,32.80468 -28.37891,58.66797 -61.80469,58.66797 -21.4414,0 -41.62109,-10.72266 -52.97265,-29.01954 -4.41797,-6.30859 -13.2461,-7.57031 -18.92188,-2.52343 -11.35156,10.72656 -26.48828,16.40234 -42.2539,16.40234 -30.90235,0 -56.75782,-22.71094 -61.17188,-52.35937 0,-32.80469 15.13281,-54.25391 42.88281,-60.5625 4.41407,-1.26172 7.57032,-3.78516 8.82813,-8.19922 1.26172,-3.78516 0.63281,-8.20313 -1.89063,-11.98438 -6.9375,-8.83203 -10.08984,-19.55859 -10.08984,-30.91406 0,-17.03125 7.56641,-32.17188 21.44141,-42.26563 5.67578,-4.41406 6.9375,-11.98437 2.52343,-17.66406 -4.41406,-5.67578 -11.98437,-6.9375 -17.66015,-2.52344 -20.17969,15.14063 -31.53125,37.85157 -31.53125,62.45313 0,10.72656 2.52343,21.44922 6.9375,31.54297 -27.75,11.98437 -44.14453,37.85156 -46.03907,73.17578 -8.82812,4.41797 -18.28906,6.94141 -27.74609,6.94141 -32.79687,0 -59.28125,-26.4961 -59.28125,-58.66797 0,-7.57032 1.26172,-15.14063 4.41406,-22.71094 1.26172,-3.15234 1.26172,-6.9375 0,-10.09375 -1.26172,-3.15234 -4.41406,-5.67578 -7.57031,-6.9375 -20.80859,-6.30859 -35.31641,-25.23438 -35.31641,-47.31641 0,-16.39843 8.19922,-30.91015 21.44532,-40.37109 6.30468,11.98437 13.24218,18.29297 13.87109,18.92578 5.04688,4.41406 13.24609,4.41406 17.66016,-0.63281 4.41406,-5.04688 4.41406,-13.2461 -0.63282,-17.66406 0,0 -3.78125,-3.78516 -7.5664,-10.09375 -7.56641,-13.2461 -9.46094,-28.38672 -5.67578,-43.52735 7.5664,-32.17187 37.20703,-56.77344 71.89453,-57.40625 -3.15235,11.98828 -2.52344,20.1875 -2.52344,20.81641 0.63281,6.9414 6.9375,11.98828 13.24609,11.35547 6.9375,-0.62891 11.98047,-6.3086 11.35157,-13.2461 0,-0.63281 -1.26172,-21.44922 17.02734,-41.63672 13.875,-15.14062 34.05469,-23.97265 55.49609,-23.97265 13.875,0 27.75,3.78515 39.10157,11.35547 -3.78516,13.25 -3.15235,23.34375 -3.15235,23.97265 0.62891,6.3086 6.30469,11.35547 12.61328,11.35547 0.62891,0 0.62891,0 1.25782,0 6.9375,-0.6289 11.98437,-6.9375 11.35547,-13.8789 0,0 -1.26172,-23.97266 20.17968,-45.41797 13.875,-12.61719 31.53125,-20.1875 51.08203,-20.1875 7.56641,0 14.50391,1.26172 21.44141,3.15234 l -59.91016,143.20313 c -1.26171,3.15234 -1.26171,6.9375 0,10.09375 1.26172,3.15234 3.78125,5.67578 6.9375,6.9375 l 27.11719,10.09375 -33.42578,131.21484 c -1.26172,5.67578 1.26172,11.35547 6.30859,14.50781 5.04297,2.52344 11.35157,1.26172 15.13282,-3.15234 L 841.28906,324.88281 c 2.52344,-3.15234 3.78125,-7.57031 2.52344,-11.35547 -1.26172,-3.78515 -3.78516,-6.9375 -8.19922,-8.83203 l -29.01172,-10.09375 45.40625,-82.64062 c 25.22656,0.63281 47.30078,13.25 61.17578,32.80468 16.39453,25.86719 10.71875,47.94532 10.71875,49.20704 -4.41406,15.76953 19.55078,22.71093 24.59766,6.9375 0,-0.62891 1.26172,-5.67579 1.89062,-13.87891 23.96485,0 45.40625,11.35547 58.65238,29.01953 9.457,12.61719 15.1328,27.75781 15.7656,43.52734 0.6289,12.61719 -2.5234,20.1875 -3.1524,21.44922 -2.5234,6.3086 0.629,13.87891 6.9376,16.40235 6.3046,2.52343 13.871,-0.62891 16.3945,-6.9375 0,0 0.6328,-1.89453 1.8945,-5.04688 13.2422,13.87891 20.1797,31.53906 20.1797,50.46485 -0.6328,9.46484 -3.1523,20.1875 -7.5664,30.28125 z m 0,0"
               id="path283" />
          </g>
          <path
             fill="#ffffff"
             d="m 1014.0859,235.93359 c 5.6758,4.41797 13.2461,3.15625 17.6602,-2.52343 l 17.0273,-22.07813 c 4.4141,-5.67969 3.1524,-13.24609 -2.5234,-17.66406 -5.6758,-4.41406 -13.2422,-3.15235 -17.6562,2.52344 l -17.0274,22.07812 c -3.7852,5.67969 -2.5234,13.87891 2.5195,17.66406 z m 0,0"
             id="path287" />
          <path
             fill="#ffffff"
             d="m 975.61719,166.54297 c -6.9375,1.26172 -11.35157,8.19922 -10.08985,14.50781 l 3.15235,18.29688 c 1.26172,6.30468 6.30859,10.08984 12.61328,10.08984 7.5664,0 13.875,-7.56641 12.61328,-15.13672 l -3.15234,-18.29687 c -1.26172,-6.3086 -8.19922,-10.72266 -15.13672,-9.46094 z m 0,0"
             id="path289" />
          <path
             fill="#ffffff"
             d="m 1046.8828,257.38281 c 1.2578,6.3086 6.3047,10.09375 12.6133,10.09375 0.6289,0 22.0703,-3.78515 22.0703,-3.78515 6.9375,-1.26172 11.3516,-7.57032 10.0899,-14.50782 -1.2618,-6.9414 -7.5665,-11.35547 -14.504,-10.09375 l -19.5507,3.78516 c -7.5664,0.62891 -11.9805,7.57031 -10.7188,14.50781 z m 0,0"
             id="path291" />
        </g>
      </g>
      <text
         xml:space="preserve"
         transform="matrix(1.5500597,0,0,1.5500597,263.52827,-751.21741)"
         id="text5516"
         style="font-style:normal;font-weight:normal;font-size:74.6667px;line-height:1.25;font-family:sans-serif;white-space:pre;shape-inside:url(#rect5518);fill:#000000;fill-opacity:1;stroke:none"><tspan
           x="250.95703"
           y="497.45881"
           id="tspan28698"><tspan
             style="font-family:Bungee;-inkscape-font-specification:'Bungee, Normal';fill:#f7582d"
             id="tspan28696">ESTRÉS EN</tspan></tspan></text>
      <text
         xml:space="preserve"
         transform="matrix(2.8598087,0,0,2.8598087,-92.128361,-1835.8715)"
         id="text24433"
         style="font-style:normal;font-weight:normal;font-size:40px;line-height:1.25;font-family:sans-serif;white-space:pre;shape-inside:url(#rect24435);fill:#000000;fill-opacity:1;stroke:none"><tspan
           x="261.97852"
           y="682.05039"
           id="tspan28702"><tspan
             style="font-family:Bungee;-inkscape-font-specification:'Bungee, Normal';fill:#f7582d"
             id="tspan28700">TRANSPORTES</tspan></tspan></text>
    </g>
  </g>
</svg>
